<svg id="icons" xmlns="http://www.w3.org/2000/svg" viewBox="0 0 48 48"><title>graphic-design</title><g id="graphic-design"><path d="M46,32v4a2,2,0,0,1-2,2H4a2,2,0,0,1-2-2V32Z" fill="#fff"/><path d="M46,4V32H2V4A2,2,0,0,1,4,2H44A2,2,0,0,1,46,4Z" fill="#b1bfc9"/><polygon points="28 38 30 46 18 46 20 38 28 38" fill="#fff"/><path d="M30,47a1,1,0,0,1-1-.76l-2-8A1,1,0,1,1,29,37.76l2,8A1,1,0,0,1,30.24,47,1,1,0,0,1,30,47Z" fill="#252b33"/><path d="M18,47a1,1,0,0,1-.24,0A1,1,0,0,1,17,45.76l2-8a1,1,0,0,1,1.94.48l-2,8A1,1,0,0,1,18,47Z" fill="#252b33"/><path d="M33,47H15a1,1,0,0,1,0-2H33a1,1,0,0,1,0,2Z" fill="#252b33"/><path d="M46,33H2a1,1,0,0,1,0-2H46a1,1,0,0,1,0,2Z" fill="#252b33"/><path d="M44,39H4a3,3,0,0,1-3-3V4A3,3,0,0,1,4,1H44a3,3,0,0,1,3,3V36A3,3,0,0,1,44,39ZM4,3A1,1,0,0,0,3,4V36a1,1,0,0,0,1,1H44a1,1,0,0,0,1-1V4a1,1,0,0,0-1-1Z" fill="#252b33"/><g id="infinity"><path d="M32.81,24.19c-3.71,0-6.34-2.75-8.81-5.66-2.47,2.91-5.1,5.66-8.81,5.66a7.19,7.19,0,0,1,0-14.38c3.72,0,6.35,2.71,8.81,5.61,2.46-2.9,5.09-5.61,8.81-5.61a7.19,7.19,0,0,1,0,14.38ZM25.3,17c2.32,2.76,4.58,5.22,7.51,5.22a5.19,5.19,0,0,0,0-10.38C29.87,11.81,27.61,14.23,25.3,17ZM15.19,11.81a5.19,5.19,0,0,0,0,10.38c2.93,0,5.19-2.46,7.51-5.22C20.39,14.23,18.13,11.81,15.19,11.81Z" fill="#252b33"/></g><path d="M24,36a1.05,1.05,0,0,1-.71-.29,1,1,0,0,1,0-1.42,1,1,0,0,1,1.42,0,1,1,0,0,1,0,1.42A1.05,1.05,0,0,1,24,36Z" fill="#252b33"/></g></svg>